<svg width="1000" height="1000" viewBox="0 0 1000 1000" fill="none" xmlns="http://www.w3.org/2000/svg">
<path d="M842.931 558.918C816.552 524.51 779.85 499.278 735.12 483.221C768.381 466.017 795.907 441.932 814.258 412.111C832.609 382.291 842.931 347.883 842.931 308.888C842.931 244.66 815.405 194.195 762.646 156.346C708.741 118.498 630.75 99 528.673 99H118.073V263.011H498.853C574.55 263.011 613.546 289.39 613.546 339.855C613.546 392.614 574.55 417.846 498.853 417.846H118.073V574.975H533.261C612.399 574.975 652.541 602.502 652.541 656.407C652.541 711.46 612.399 737.839 533.261 737.839H118.073V901.85H551.612C658.276 901.85 739.708 883.499 797.054 844.503C853.254 806.655 881.927 752.749 881.927 681.64C881.927 633.469 868.164 593.326 842.931 558.918Z" fill="white"/>
</svg>
