<svg width="2620" height="496" viewBox="0 0 2620 496" fill="none" xmlns="http://www.w3.org/2000/svg">
<g clip-path="url(#clip0_101_161)">
<path d="M328.486 234.93C316.531 219.337 299.899 207.902 279.629 200.626C294.702 192.829 307.176 181.915 315.492 168.401C323.808 154.887 328.486 139.295 328.486 121.623C328.486 92.5165 316.012 69.6472 292.103 52.4953C267.674 35.3433 232.331 26.5074 186.073 26.5074H0V100.833H172.559C206.863 100.833 224.535 112.787 224.535 135.656C224.535 159.565 206.863 171 172.559 171H0V242.206H188.152C224.015 242.206 242.206 254.68 242.206 279.109C242.206 304.057 224.015 316.012 188.152 316.012H0V390.337H196.468C244.805 390.337 281.708 382.021 307.696 364.349C333.164 347.197 346.158 322.768 346.158 290.544C346.158 268.714 339.921 250.522 328.486 234.93Z" fill="black"/>
<path d="M692.072 108.629H597.996L528.349 280.668L459.221 108.629H357.869L478.452 393.975C474.294 402.291 469.096 408.528 462.859 412.166C456.622 416.325 449.345 417.884 439.99 417.884C431.674 417.884 423.878 416.844 416.081 413.726C408.285 410.607 401.528 406.449 396.331 401.252L362.026 470.379C371.382 478.176 383.337 484.413 398.409 489.09C413.482 493.768 428.555 495.847 443.628 495.847C472.735 495.847 497.683 489.09 518.473 475.057C538.744 461.024 555.896 436.595 570.449 401.771L692.072 108.629Z" fill="black"/>
<path d="M1011.99 108.629H917.914V142.933C899.202 116.945 869.576 103.951 829.555 103.951C804.607 103.951 781.218 109.669 760.427 121.103C739.117 132.538 722.485 148.131 710.011 168.921C697.537 189.711 691.3 213.1 691.3 239.608C691.3 266.635 697.537 290.544 710.011 311.334C722.485 332.124 739.117 347.717 760.427 359.152C781.218 370.586 804.607 375.784 829.555 375.784C865.938 375.784 894.005 364.869 913.236 342.519V351.875C913.236 374.744 906.999 391.376 895.044 402.811C882.57 414.246 863.859 419.963 837.871 419.963C820.719 419.963 803.567 417.364 785.896 412.167C768.224 406.969 754.19 399.173 742.756 389.817L706.893 458.945C723.525 471.419 744.315 480.255 768.744 486.492C792.652 492.729 818.64 495.847 846.707 495.847C899.722 495.847 940.783 482.854 969.369 456.866C997.436 430.878 1011.99 391.376 1011.99 338.881V108.629ZM896.604 281.188C885.169 292.103 870.616 297.301 852.944 297.301C835.272 297.301 820.2 292.103 808.765 281.188C796.811 270.793 791.093 256.76 791.093 239.608C791.093 222.975 796.811 208.942 808.245 198.547C819.68 188.152 834.753 182.434 852.944 182.434C870.616 182.434 885.689 188.152 897.123 198.547C908.558 208.942 914.275 222.975 914.275 239.608C914.275 256.76 908.038 270.793 896.604 281.188Z" fill="black"/>
<path d="M1378.46 108.629H1284.38V142.933C1265.67 116.945 1236.05 103.951 1196.02 103.951C1171.08 103.951 1147.69 109.669 1126.9 121.103C1105.59 132.538 1088.95 148.131 1076.48 168.921C1064.01 189.711 1057.77 213.1 1057.77 239.608C1057.77 266.635 1064.01 290.544 1076.48 311.334C1088.95 332.124 1105.59 347.717 1126.9 359.152C1147.69 370.586 1171.08 375.784 1196.02 375.784C1232.41 375.784 1260.47 364.869 1279.7 342.519V351.875C1279.7 374.744 1273.47 391.376 1261.51 402.811C1249.04 414.246 1230.33 419.963 1204.34 419.963C1187.19 419.963 1170.04 417.364 1152.36 412.167C1134.69 406.969 1120.66 399.173 1109.22 389.817L1073.36 458.945C1089.99 471.419 1110.78 480.255 1135.21 486.492C1159.12 492.729 1185.11 495.847 1213.18 495.847C1266.19 495.847 1307.25 482.854 1335.84 456.866C1363.91 430.878 1378.46 391.376 1378.46 338.881V108.629ZM1263.07 281.188C1251.64 292.103 1237.08 297.301 1219.41 297.301C1201.74 297.301 1186.67 292.103 1175.23 281.188C1163.28 270.793 1157.56 256.76 1157.56 239.608C1157.56 222.975 1163.28 208.942 1174.71 198.547C1186.15 188.152 1201.22 182.434 1219.41 182.434C1237.08 182.434 1252.16 188.152 1263.59 198.547C1275.03 208.942 1280.74 222.975 1280.74 239.608C1280.74 256.76 1274.51 270.793 1263.07 281.188Z" fill="black"/>
<path d="M1549.5 119.024V112.787C1549.5 100.833 1552.1 91.4771 1557.81 85.24C1563.53 79.0029 1571.85 75.8844 1582.24 75.8844C1592.12 75.8844 1601.99 79.0029 1611.87 84.2005L1636.3 14.5532C1628.5 9.87536 1618.63 6.23706 1607.19 3.63828C1595.24 1.55925 1583.28 0 1570.81 0C1533.39 0 1504.8 10.3951 1484.01 30.1458C1463.22 50.4163 1453.34 77.4437 1453.34 111.748V119.024H1412.28V192.83H1453.34V390.337H1552.1V192.83H1616.55V119.024H1549.5Z" fill="black"/>
<path d="M1653.06 4.67743V390.337H1751.81V4.67743H1653.06Z" fill="black"/>
<path d="M1875.26 376.304C1899.16 388.778 1926.71 395.015 1956.86 395.015C1987 395.015 2014.55 388.778 2038.98 376.304C2062.89 363.829 2082.12 346.677 2095.63 324.328C2109.15 302.498 2115.9 277.03 2115.9 248.963C2115.9 220.896 2109.15 195.948 2095.63 174.118C2082.12 152.289 2062.89 135.137 2038.98 122.663C2014.55 110.188 1987 103.951 1956.86 103.951C1926.19 103.951 1898.64 110.188 1874.74 122.663C1850.83 135.137 1831.6 152.289 1818.08 174.118C1804.57 196.468 1797.81 221.416 1797.81 248.963C1797.81 277.03 1804.57 302.498 1818.08 324.328C1831.6 346.677 1850.83 363.829 1875.26 376.304ZM1999.48 298.86C1988.04 310.814 1974.01 316.532 1956.86 316.532C1939.19 316.532 1925.15 310.814 1914.24 298.86C1902.8 286.905 1897.61 270.273 1897.61 248.963C1897.61 228.173 1902.8 212.061 1914.24 200.106C1925.15 188.672 1939.19 182.434 1956.86 182.434C1974.01 182.434 1988.04 188.672 1999.48 200.106C2010.39 212.061 2016.11 228.173 2016.11 248.963C2016.11 270.273 2010.39 286.905 1999.48 298.86Z" fill="black"/>
<path d="M2620.27 108.629H2533.47L2473.7 280.668L2415.49 108.629H2331.29L2271.51 279.109L2213.82 108.629H2120.26L2220.58 390.337H2316.21L2371.31 237.009L2424.32 390.337H2519.96L2620.27 108.629Z" fill="black"/>
</g>
<defs>
<clipPath id="clip0_101_161">
<rect width="2620" height="496" fill="white"/>
</clipPath>
</defs>
</svg>
